<svg width="35" height="35" viewBox="0 0 35 35" fill="none" xmlns="http://www.w3.org/2000/svg">
<path d="M29.75 5.09259C28.1454 3.47228 26.2343 2.18754 24.1281 1.31323C22.022 0.438922 19.7629 -0.00746054 17.4825 9.43165e-05C7.9275 9.43165e-05 0.14 7.78759 0.14 17.3426C0.14 20.4051 0.945 23.3801 2.45 26.0051L0 35.0001L9.1875 32.5851C11.725 33.9676 14.5775 34.7026 17.4825 34.7026C27.0375 34.7026 34.825 26.9151 34.825 17.3601C34.825 12.7226 33.0225 8.36509 29.75 5.09259ZM17.4825 31.7626C14.8925 31.7626 12.355 31.0626 10.1325 29.7501L9.6075 29.4351L4.1475 30.8701L5.6 25.5501L5.25 25.0076C3.81071 22.7099 3.04662 20.0538 3.045 17.3426C3.045 9.39759 9.52 2.92259 17.465 2.92259C21.315 2.92259 24.9375 4.42759 27.65 7.15759C28.9933 8.49435 30.0579 10.0845 30.7818 11.8359C31.5058 13.5873 31.8748 15.465 31.8675 17.3601C31.9025 25.3051 25.4275 31.7626 17.4825 31.7626ZM25.3925 20.9826C24.955 20.7726 22.82 19.7226 22.435 19.5651C22.0325 19.4251 21.7525 19.3551 21.455 19.7751C21.1575 20.2126 20.335 21.1926 20.09 21.4726C19.845 21.7701 19.5825 21.8051 19.145 21.5776C18.7075 21.3676 17.3075 20.8951 15.6625 19.4251C14.3675 18.2701 13.51 16.8526 13.2475 16.4151C13.0025 15.9776 13.2125 15.7501 13.44 15.5226C13.6325 15.3301 13.8775 15.0151 14.0875 14.7701C14.2975 14.5251 14.385 14.3326 14.525 14.0526C14.665 13.7551 14.595 13.5101 14.49 13.3001C14.385 13.0901 13.51 10.9551 13.16 10.0801C12.81 9.24009 12.4425 9.34509 12.18 9.32759H11.34C11.0425 9.32759 10.5875 9.43259 10.185 9.87009C9.8 10.3076 8.68 11.3576 8.68 13.4926C8.68 15.6276 10.2375 17.6926 10.4475 17.9726C10.6575 18.2701 13.51 22.6451 17.85 24.5176C18.8825 24.9726 19.6875 25.2351 20.3175 25.4276C21.35 25.7601 22.295 25.7076 23.0475 25.6026C23.8875 25.4801 25.62 24.5526 25.97 23.5376C26.3375 22.5226 26.3375 21.6651 26.215 21.4726C26.0925 21.2801 25.83 21.1926 25.3925 20.9826Z" fill="#405FFA"/>
</svg>
